<svg width="16" height="16" viewBox="0 0 16 16" fill="none" xmlns="http://www.w3.org/2000/svg">
<path d="M10.6668 6.66671H12.0002M10.6668 9.33337H12.0002M4.11353 10.0001C4.25095 9.60942 4.50626 9.27106 4.8442 9.0317C5.18215 8.79233 5.58607 8.66378 6.00019 8.66378C6.41432 8.66378 6.81823 8.79233 7.15618 9.0317C7.49412 9.27106 7.74943 9.60942 7.88686 10.0001M7.3335 7.33337C7.3335 8.06975 6.73654 8.66671 6.00016 8.66671C5.26378 8.66671 4.66683 8.06975 4.66683 7.33337C4.66683 6.59699 5.26378 6.00004 6.00016 6.00004C6.73654 6.00004 7.3335 6.59699 7.3335 7.33337ZM2.66683 3.33337H13.3335C14.0699 3.33337 14.6668 3.93033 14.6668 4.66671V11.3334C14.6668 12.0698 14.0699 12.6667 13.3335 12.6667H2.66683C1.93045 12.6667 1.3335 12.0698 1.3335 11.3334V4.66671C1.3335 3.93033 1.93045 3.33337 2.66683 3.33337Z" stroke="#6B7280" stroke-linecap="round" stroke-linejoin="round"/>
</svg>
